<svg width="40" height="40" viewBox="0 0 40 40" fill="none" xmlns="http://www.w3.org/2000/svg">
<path d="M17.6562 27.3437C18.3333 28.0208 19.1146 28.3594 20 28.3594C20.8854 28.3594 21.6667 28.0208 22.3437 27.3437C23.0208 26.6667 23.3594 25.8854 23.3594 25C23.3594 24.1146 23.0208 23.3333 22.3437 22.6562C21.6667 21.9792 20.8854 21.6406 20 21.6406C19.1146 21.6406 18.3333 21.9792 17.6562 22.6562C16.9792 23.3333 16.6406 24.1146 16.6406 25C16.6406 25.8854 16.9792 26.6667 17.6562 27.3437ZM15 15H25L20 7.65625L15 15ZM28.6719 15H36.6406C37.1094 15 37.5 15.1562 37.8125 15.4687C38.1771 15.7812 38.3594 16.1719 38.3594 16.6406C37.8385 18.724 37.0573 21.6667 36.0156 25.4687C34.974 29.2187 34.3229 31.5885 34.0625 32.5781C33.5937 34.1927 32.526 35 30.8594 35H9.14062C7.47396 35 6.40625 34.1927 5.9375 32.5781L1.71875 17.1094C1.66667 17.0052 1.64062 16.849 1.64062 16.6406C1.64062 16.1719 1.79687 15.7812 2.10937 15.4687C2.47396 15.1562 2.89062 15 3.35937 15H11.3281L18.5937 4.0625C18.9062 3.59375 19.375 3.35938 20 3.35938C20.625 3.35938 21.0937 3.59375 21.4062 4.0625L28.6719 15Z" fill="#E38901"/>
</svg>
